# File created by Blade
# Date/Time:  Tue Apr 07 20:35:32 2015
# Frame Rate: 120.000 fps
#------------------------------------------------------
:FULLY-SPECIFIED
:DEGREES
1080
root 1.324230 34.800827 -4.109295 45.082157 -33.391920 -50.195586
Spine -4.993181 25.032233 23.367930
Head 1.277824 10.262697 6.810508
LeftShoulder -24.840533 40.967857 15.721785
LeftArm 55.019239 -57.655815 -80.217112
LeftForeArm 2.800040 -0.000000 13.469166
LeftHand 12.067751 -0.000000 9.287367
LeftHandThumb1 -26.253704 0.000000 33.147579
RightShoulder 5.089266 9.292877 -19.385399
RightArm 21.164015 -0.641271 65.226439
RightForeArm -2.448584 -0.000000 17.104939
RightHand 2.336888 -0.000000 11.154463
RightHandThumb1 -24.326973 -0.000000 -32.862282
LeftUpLeg -13.371854 12.469199 33.494723
LeftLeg 7.473984 -0.000000 -0.000000
LeftFoot -10.295888 17.758070 -19.163123
LeftToeBase -0.371046 -0.000000 0.000000
RightUpLeg -44.772582 -42.089468 -35.262641
RightLeg 82.356762 -0.000000 -0.000000
RightFoot 40.074239 -22.060425 -0.219497
RightToeBase 29.033344 -0.000000 -0.000000
1081
root 1.310761 34.807414 -4.099998 45.256678 -33.336943 -50.284189
Spine -5.132774 25.127819 23.248785
Head 1.302301 10.305644 6.969595
LeftShoulder -24.902395 41.019949 15.710747
LeftArm 54.981793 -57.596284 -80.298071
LeftForeArm 2.892009 -0.000000 13.432835
LeftHand 12.070273 -0.000000 9.272711
LeftHandThumb1 -26.253704 0.000000 33.147579
RightShoulder 5.044216 9.259210 -19.332225
RightArm 20.987385 -0.430498 65.103653
RightForeArm -2.555601 -0.000000 17.154082
RightHand 2.311096 0.000000 11.065006
RightHandThumb1 -24.326973 -0.000000 -32.862282
LeftUpLeg -13.339118 12.562139 33.556683
LeftLeg 7.278205 -0.000000 -0.000000
LeftFoot -10.363737 17.874542 -19.206323
LeftToeBase -0.310785 -0.000000 0.000000
RightUpLeg -44.214036 -41.912348 -35.707704
RightLeg 81.967216 -0.000000 -0.000000
RightFoot 40.015932 -22.309423 -0.292219
RightToeBase 29.037209 -0.000000 -0.000000
1082
root 1.295817 34.812844 -4.086880 45.430126 -33.315048 -50.380595
Spine -5.277481 25.220979 23.133460
Head 1.391687 10.350201 7.123974
LeftShoulder -25.021546 41.125116 15.598900
LeftArm 54.986191 -57.547668 -80.325971
LeftForeArm 2.889221 -0.000000 13.339075
LeftHand 12.116087 -0.000000 9.295996
LeftHandThumb1 -26.253704 0.000000 33.147579
RightShoulder 5.026581 9.191774 -19.334593
RightArm 20.850319 -0.272235 65.032414
RightForeArm -2.279893 0.000000 17.192454
RightHand 2.283310 0.000000 11.630026
RightHandThumb1 -24.326973 -0.000000 -32.862282
LeftUpLeg -13.277113 12.727925 33.610110
LeftLeg 7.074881 -0.000000 -0.000000
LeftFoot -10.426539 17.798712 -19.312371
LeftToeBase -0.055044 -0.000000 0.000000
RightUpLeg -43.664604 -41.745673 -36.140713
RightLeg 81.548527 -0.000000 -0.000000
RightFoot 39.967758 -22.523192 -0.310369
RightToeBase 29.043040 -0.000000 -0.000000
1083
root 1.283008 34.818283 -4.072180 45.596951 -33.313396 -50.471769
Spine -5.406155 25.351303 23.012092
Head 1.471939 10.383126 7.239673
LeftShoulder -25.040873 41.164601 15.581651
LeftArm 54.931336 -57.546447 -80.382089
LeftForeArm 2.919497 -0.000000 13.218058
LeftHand 12.131785 -0.000000 9.187264
LeftHandThumb1 -26.253704 0.000000 33.147579
RightShoulder 5.012980 9.160478 -19.322518
RightArm 20.673462 -0.066574 64.967209
RightForeArm -2.325378 -0.000000 17.217692
RightHand 2.309857 -0.000000 11.835942
RightHandThumb1 -24.326973 -0.000000 -32.862282
LeftUpLeg -13.251425 12.998806 33.637089
LeftLeg 6.975324 -0.000000 -0.000000
LeftFoot -10.495508 17.579867 -19.548595
LeftToeBase 0.134801 -0.000000 -0.000000
RightUpLeg -43.111221 -41.580585 -36.565357
RightLeg 81.109055 -0.000000 -0.000000
RightFoot 39.939340 -22.636289 -0.343296
RightToeBase 29.002245 -0.000000 -0.000000
1084
root 1.271779 34.824245 -4.055985 45.793951 -33.336747 -50.553891
Spine -5.584694 25.447731 22.862366
Head 1.608325 10.429326 7.357272
LeftShoulder -25.131374 41.174238 15.529368
LeftArm 54.901835 -57.566102 -80.469697
LeftForeArm 2.954015 0.000000 13.066929
LeftHand 12.162281 0.000000 9.186541
LeftHandThumb1 -26.253704 0.000000 33.147579
RightShoulder 5.085479 9.077165 -19.242577
RightArm 20.581277 0.124635 64.817172
RightForeArm -2.522686 -0.000000 17.171273
RightHand 2.450487 -0.000000 11.118980
RightHandThumb1 -24.326973 -0.000000 -32.862282
LeftUpLeg -13.218595 13.253535 33.667351
LeftLeg 6.837893 -0.000000 -0.000000
LeftFoot -10.539864 17.270604 -19.933962
LeftToeBase 0.171532 -0.000000 -0.000000
RightUpLeg -42.596565 -41.414491 -36.976671
RightLeg 80.688325 -0.000000 -0.000000
RightFoot 39.793695 -22.774554 -0.116477
RightToeBase 28.994186 -0.000000 -0.000000
1085
root 1.260677 34.832131 -4.038972 46.008931 -33.353849 -50.682763
Spine -5.735861 25.584040 22.763958
Head 1.710753 10.515189 7.424242
LeftShoulder -25.125149 41.119082 15.534970
LeftArm 54.473360 -57.543046 -80.188235
LeftForeArm 2.817413 -0.000000 12.949957
LeftHand 12.063738 -0.000000 9.263304
LeftHandThumb1 -26.253704 0.000000 33.147579
RightShoulder 5.091632 9.046556 -19.282413
RightArm 20.433206 0.290741 64.836670
RightForeArm -2.232460 -0.000000 17.251153
RightHand 2.457822 -0.000000 11.887060
RightHandThumb1 -24.326973 -0.000000 -32.862282
LeftUpLeg -13.223879 13.620353 33.727400
LeftLeg 6.821051 -0.000000 -0.000000
LeftFoot -10.581927 16.787923 -20.409478
LeftToeBase 0.045910 -0.000000 -0.000000
RightUpLeg -42.130192 -41.241949 -37.275249
RightLeg 80.239698 -0.000000 -0.000000
RightFoot 39.787462 -22.936712 -0.094748
RightToeBase 28.944974 -0.000000 -0.000000
